<?xml version="1.0" standalone="no"?>
<svg xmlns="http://www.w3.org/2000/svg"
 width="700.000000pt" height="700.000000pt" viewBox="0 0 700.000000 700.000000"
 preserveAspectRatio="xMidYMid meet">
<metadata>
Created by potrace 1.11, written by Peter Selinger 2001-2013
</metadata>
<g transform="translate(0.000000,700.000000) scale(0.100000,-0.100000)"
fill="#000000" stroke="none">
<path d="M3468 6785 c-1 -1 -64 -6 -138 -10 -74 -3 -148 -8 -165 -10 -16 -2
-59 -7 -95 -11 -36 -3 -68 -8 -71 -9 -3 -2 -28 -7 -55 -11 -27 -3 -51 -8 -54
-9 -3 -2 -25 -6 -50 -10 -65 -10 -262 -62 -365 -97 -497 -168 -910 -423 -1275
-788 -80 -80 -160 -162 -178 -182 -85 -99 -247 -317 -297 -400 -9 -15 -71
-120 -101 -173 -67 -115 -180 -374 -238 -548 -31 -92 -86 -296 -101 -377 -3
-14 -7 -36 -10 -50 -3 -14 -7 -40 -10 -57 -2 -18 -7 -48 -10 -65 -23 -135 -30
-253 -30 -488 1 -205 6 -330 20 -420 2 -14 6 -41 9 -60 13 -90 17 -118 27
-160 5 -25 11 -56 14 -69 39 -209 157 -538 282 -786 243 -479 629 -922 1073
-1231 343 -238 781 -427 1185 -509 44 -9 89 -19 100 -21 198 -42 350 21 424
176 22 46 26 69 26 140 0 74 -4 92 -29 140 -53 102 -149 169 -261 184 -140 19
-368 81 -530 143 -107 42 -339 152 -343 164 -2 5 -8 9 -13 9 -21 0 -174 103
-348 235 -159 120 -403 389 -535 590 -33 50 -68 103 -79 118 -32 48 -153 297
-187 387 -18 47 -36 94 -41 105 -33 80 -108 400 -123 525 -30 248 -24 556 14
765 5 28 12 66 15 85 31 191 121 453 230 670 78 155 87 171 167 290 128 192
299 382 498 554 307 266 763 487 1151 560 150 27 201 35 309 43 217 17 502 3
675 -34 11 -2 45 -8 75 -14 75 -15 266 -73 370 -113 652 -253 1202 -796 1495
-1476 72 -165 163 -463 180 -590 2 -8 8 -46 14 -85 26 -152 35 -303 34 -570 0
-249 -9 -300 -71 -420 -46 -88 -154 -199 -242 -248 -118 -65 -261 -88 -393
-63 -219 42 -386 188 -465 408 l-26 73 -2 859 c-1 473 -5 880 -9 905 -15 97
-87 193 -182 241 -40 21 -63 25 -138 25 -78 0 -97 -3 -140 -27 -27 -14 -67
-43 -88 -64 -37 -37 -87 -128 -87 -158 0 -9 -2 -16 -3 -16 -2 0 -42 23 -88 51
-141 86 -343 170 -464 194 -151 29 -240 37 -380 32 -82 -3 -160 -8 -171 -11
-12 -2 -37 -7 -55 -10 -365 -59 -739 -294 -965 -605 -205 -285 -298 -586 -289
-946 4 -176 22 -281 76 -445 111 -336 357 -638 672 -827 117 -71 334 -157 447
-178 14 -3 37 -7 51 -10 89 -17 170 -23 290 -23 139 1 183 5 324 34 59 12 179
50 255 82 141 58 325 175 435 276 28 25 52 46 55 45 3 0 28 -32 55 -70 75
-105 208 -229 326 -305 365 -234 841 -261 1221 -70 137 69 225 133 333 241
183 182 296 388 351 645 27 124 27 698 0 935 -7 65 -28 192 -36 225 -5 19 -11
49 -13 65 -9 57 -66 270 -101 376 -288 870 -896 1586 -1691 1991 -284 145
-667 268 -940 303 -11 2 -42 6 -70 9 -27 4 -66 9 -85 11 -19 3 -100 8 -180 11
-80 3 -150 7 -157 9 -6 2 -13 2 -15 0z m62 -2420 c218 -32 453 -183 586 -375
200 -289 197 -691 -7 -985 -304 -440 -922 -507 -1314 -143 -177 165 -281 404
-279 643 1 100 26 238 54 300 5 11 16 38 26 60 49 113 167 256 279 342 108 81
272 146 410 160 28 3 51 6 53 8 4 4 147 -4 192 -10z"/>
</g>
</svg>
